<?xml version="1.0" encoding="UTF-8"?>
<svg width="20px" height="20px" viewBox="0 0 20 20" version="1.1" xmlns="http://www.w3.org/2000/svg" xmlns:xlink="http://www.w3.org/1999/xlink">
    <!-- Generator: Sketch 41.1 (35376) - http://www.bohemiancoding.com/sketch -->
    <title>play_hover</title>
    <desc>Created with Sketch.</desc>
    <defs></defs>
    <g id="Timeslider" stroke="none" stroke-width="1" fill="none" fill-rule="evenodd">
        <g id="TimeSlider_stop" transform="translate(-989.000000, -971.000000)" fill="#FFFFFF">
            <g id="Time-Slider-Copy-5" transform="translate(720.000000, 911.000000)">
                <g id="play_hover" transform="translate(269.000000, 60.000000)">
                    <path d="M8,14.5 L14,10 L8,5.5 L8,14.5 L8,14.5 Z M10,0 C4.5,0 0,4.5 0,10 C0,15.5 4.5,20 10,20 C15.5,20 20,15.5 20,10 C20,4.5 15.5,0 10,0 L10,0 Z M10,18 C5.6,18 2,14.4 2,10 C2,5.6 5.6,2 10,2 C14.4,2 18,5.6 18,10 C18,14.4 14.4,18 10,18 L10,18 Z" id="Shape"></path>
                </g>
            </g>
        </g>
    </g>
</svg>